<svg width="156" height="38" viewBox="0 0 156 38" fill="none" xmlns="http://www.w3.org/2000/svg">
<path fill-rule="evenodd" clip-rule="evenodd" d="M39.2764 3.42239L40.7432 3.09642C41.558 2.77047 42.2099 2.6075 42.6988 2.28156C43.1877 1.95561 43.3507 1.46671 43.3507 0.977796C43.3507 0.325905 43.0248 0 42.2099 0C42.0469 0 41.721 -3.97907e-05 41.395 0.162933C41.0691 0.325905 40.5802 0.651811 40.0913 1.14073C39.6023 1.79262 39.1134 2.28158 38.9504 2.60752C35.854 3.09644 33.0834 3.74831 30.4759 4.72615C28.8461 5.37804 27.3794 6.02991 26.0756 6.84477C24.7718 7.65963 23.631 8.63751 22.6532 9.94129C21.3494 11.571 20.6975 13.2007 20.6975 14.9934C20.6975 16.2972 21.1864 17.438 22.1643 18.2529C22.9791 18.9047 23.794 19.2307 24.7718 19.2307C25.4237 19.2307 25.9126 19.0678 26.5645 18.9048C28.0313 18.4159 29.0091 17.438 29.824 16.1342C30.3129 15.3194 30.4759 14.6675 30.4759 14.0156C30.4759 13.3637 30.3129 12.8748 30.1499 12.3859C29.824 12.0599 29.661 12.06 29.3351 12.2229C29.1721 12.3859 29.1721 12.5489 29.3351 12.7118C29.498 12.8748 29.498 13.2007 29.498 13.6896C29.498 14.9934 29.0091 15.9713 28.1943 16.9491C27.7053 17.601 27.0534 17.9269 26.4016 18.2529C25.7497 18.4158 25.0978 18.5788 24.6089 18.5788C24.1199 18.5788 23.631 18.2529 23.1421 17.764C22.6532 17.275 22.4902 16.4602 22.4902 15.4824C22.4902 13.5267 23.1421 11.897 24.6089 10.2673C25.7497 8.96347 27.0535 7.98564 28.6832 7.0078C31.7797 5.37808 34.8761 4.23727 37.8096 3.74835C36.0169 6.51888 34.3872 9.77834 32.5945 13.5267C31.2907 16.7862 29.987 19.5567 28.6832 22.0013C27.8683 23.4681 27.0534 24.7718 26.4016 25.9126C25.7497 27.0534 24.7718 28.1942 23.794 29.498C22.8162 30.8018 21.6754 31.9426 20.6975 32.7575C19.7197 33.5723 18.4159 34.5502 17.1121 35.202C15.8083 36.0169 14.3416 36.5058 12.8748 36.8318C12.2229 36.9947 11.4081 37.1577 10.5932 37.1577C9.77836 37.1577 8.63754 36.9948 7.17079 36.6688C6.19295 36.5059 5.21512 36.1799 4.40026 35.528C3.58539 35.0391 2.77052 34.3871 2.28161 33.7353C1.46674 32.7574 0.977833 31.4537 0.977833 29.9869C0.977833 29.498 1.1408 28.6832 1.30377 27.7053C1.62972 26.7275 2.11864 25.7496 2.9335 24.7718C3.74836 23.7939 4.56323 23.1421 5.21512 22.9791C5.54106 22.8161 5.54107 22.8161 5.70404 22.6531C5.70404 22.4902 5.54106 22.4902 5.37809 22.4902C4.7262 22.4902 3.91134 22.9791 2.9335 23.794C1.95566 24.6088 1.14081 25.5867 0.814863 26.5645C0.162973 28.0313 0 29.335 0 30.4758C0 31.6166 0.162963 32.5945 0.651881 33.4094C1.46674 35.2021 3.09647 36.5058 5.37809 37.1577C6.84484 37.6467 8.3116 37.9726 9.77836 37.9726C11.2451 37.9726 12.3859 37.9725 13.5267 37.8096C15.9713 37.4836 18.5789 36.5058 21.5124 34.7131C24.4459 32.9204 26.7275 30.6388 28.5202 28.0312C29.824 26.0755 30.9648 23.794 32.1056 21.3494C33.0834 18.9048 34.0613 16.7861 34.5502 14.9934C36.0169 10.1042 37.4837 6.35589 39.2764 3.42239ZM40.0913 2.44459C40.2542 2.28162 40.2542 2.11862 40.4172 2.11862C40.4172 2.11862 40.5802 1.95563 40.7432 1.79266C40.9061 1.62969 40.9061 1.62967 41.0691 1.46669C41.2321 1.46669 41.2321 1.30376 41.395 1.30376C41.558 1.30376 41.558 1.14073 41.558 1.14073H41.721C41.884 1.14073 42.0469 1.30372 42.0469 1.46669C42.0469 1.95561 41.395 2.44455 39.7653 2.60752C39.7653 2.60752 39.9283 2.44459 40.0913 2.44459ZM67.9596 19.3937C67.7966 19.3937 67.6336 19.3937 67.6336 19.7196C65.8409 23.468 64.3742 25.2608 63.2334 25.2608C62.7444 25.2608 62.5815 24.9348 62.5815 24.4459C62.5815 22.9791 63.8853 20.0456 66.4928 15.3194C66.3298 15.3194 66.3298 15.3194 66.1669 15.3194C65.678 15.3194 64.7001 15.6454 63.5593 16.2973C62.4185 16.9492 61.4407 17.601 60.6258 18.4159C59.8109 19.2307 58.8331 20.2086 57.8553 21.3494C59.648 17.764 60.9517 15.6453 61.7666 15.3194C61.6036 15.3194 61.2777 15.3194 60.9517 15.3194C60.6258 15.3194 60.2999 15.1564 60.2999 15.1564C59.811 15.1564 59.485 15.3194 59.1591 15.4824C58.6701 15.8083 58.0182 17.275 56.8774 19.3937C56.8774 19.3937 56.7145 19.5567 56.7145 19.7196C54.9218 23.468 53.455 25.4237 52.4772 25.4237C51.9883 25.4237 51.8253 25.0978 51.8253 24.4459C51.8253 22.9791 53.1291 19.8826 55.7366 15.3194C55.5737 15.3194 55.5737 15.3194 55.4107 15.3194C54.9218 15.3194 53.9439 15.6454 52.8031 16.2973C51.6623 16.9492 50.6845 17.601 49.8696 18.2529C49.0548 18.9047 48.0769 19.8827 47.0991 21.1864C48.5658 18.09 50.1956 14.9935 51.9883 11.897C53.618 8.8005 54.7588 7.00776 55.4107 6.35587C55.2477 6.35587 54.9218 6.35587 54.5958 6.35587C54.2699 6.35587 53.9439 6.35587 53.9439 6.35587C53.455 6.35587 53.1291 6.51883 52.8031 6.84477C52.4772 7.17072 52.1512 7.65963 51.6623 8.4745C50.3585 10.9191 48.4029 14.6675 45.9583 19.7196C45.9583 19.8826 45.7953 20.0456 45.6323 20.5345C45.4694 21.0234 45.3064 21.3493 45.1434 21.5123C44.9804 21.6753 44.8175 22.1642 44.4915 22.6531C44.1656 23.1421 43.6767 23.794 43.0248 24.4459C42.5358 25.0978 41.884 25.2608 41.395 25.2608C40.5802 25.2608 40.0913 24.9348 39.9283 24.4459C41.0691 23.3051 42.0469 22.0012 42.6988 20.6974C43.1877 19.7196 43.3507 18.7418 43.3507 17.764C43.3507 15.8083 42.5359 14.8305 40.9061 14.8305C39.9283 14.8305 38.7875 15.3194 37.4837 16.4602C36.3429 17.438 35.3651 18.7419 34.7132 20.3716C34.2242 21.3494 34.0613 22.3272 34.0613 23.3051C34.0613 25.2607 34.8761 26.2386 36.5059 26.2386C37.3207 26.2386 38.2986 25.9126 39.2764 25.0977C39.7653 25.5866 40.4172 25.9126 41.395 25.9126C41.884 25.9126 42.3729 25.7496 42.8618 25.4237C43.0248 25.2607 43.1877 25.0978 43.5137 24.9348C43.3507 25.4237 43.0248 25.9126 42.8618 26.4015C43.0248 26.2385 43.3507 26.2386 44.0026 26.2386C44.6545 26.2386 44.9804 26.0756 45.1434 25.7497C46.6102 22.9791 48.0769 20.6975 49.7066 19.3937C50.6845 18.4158 51.4993 17.927 51.8253 17.927C52.1512 17.927 52.3142 18.0899 52.3142 18.2529C52.3142 18.4158 52.1512 18.7418 51.9883 19.2307C51.0104 20.8605 50.3585 21.8383 50.1956 22.6531C50.0326 23.305 49.8696 23.957 49.8696 24.4459C49.8696 24.9348 50.0326 25.2607 50.1956 25.5866C50.6845 26.2385 51.1734 26.5645 51.9883 26.5645C52.8031 26.5645 53.618 26.0756 54.2699 25.2608C53.9439 25.7497 53.781 26.2386 53.618 26.5645C53.781 26.4015 54.1069 26.4015 54.5958 26.4015C55.0847 26.4015 55.4107 26.4015 55.5737 26.2386C55.7366 26.2386 55.8996 26.0756 56.0626 25.9126C57.5293 23.1421 58.9961 20.8605 60.6258 19.5567C61.6036 18.5789 62.4185 18.0899 62.7445 18.0899C63.0704 18.0899 63.2334 18.2529 63.2334 18.4159C63.2334 18.5789 63.0704 18.9048 62.9074 19.3937C61.9296 21.0234 61.2777 22.0013 61.1147 22.8162C60.9518 23.4681 60.7888 24.1199 60.7888 24.6088C60.7888 25.0977 60.9518 25.4237 61.1147 25.7497C61.6036 26.4015 62.0926 26.7274 62.9074 26.7274C63.7223 26.7274 64.5372 26.2386 65.352 25.4237C66.1669 24.6088 67.1447 22.9791 68.2855 20.6974C68.4485 20.5345 68.4485 20.3716 68.4485 20.3716C68.2855 19.5567 68.1226 19.5567 67.9596 19.3937ZM38.4615 22.8162C38.4615 23.3051 38.6245 23.957 38.9504 24.4459C38.2986 25.0978 37.6467 25.2608 37.1577 25.2608C36.3429 25.2608 36.0169 24.7718 36.0169 23.794C36.0169 22.8161 36.3429 21.5124 37.1577 20.0456C37.8096 18.7418 38.4615 17.601 39.2764 16.9491C40.0913 16.1342 40.7431 15.8083 41.395 15.8083C42.2099 15.8083 42.5359 16.2972 42.5359 17.438C42.5359 18.4158 42.2099 19.5566 41.721 20.6974C41.2321 21.6753 40.9061 22.4902 40.4172 22.9791C40.4172 22.8161 40.4172 22.6532 40.4172 22.4902C40.4172 22.3272 40.2542 22.1643 40.0913 22.0013C39.9283 21.8383 39.6023 21.6753 39.4394 21.6753C38.9505 21.5124 38.6245 22.0013 38.4615 22.8162ZM101.695 15.4824C101.206 14.6675 100.391 13.6897 99.0874 13.0378C98.2725 12.5489 96.9687 11.897 95.013 11.0821C93.2203 10.2673 91.9166 9.6153 91.4276 9.28936C89.7979 8.31152 88.983 7.17076 88.983 5.86697C88.983 4.88914 89.472 3.91128 90.6128 3.09642C91.2647 2.44453 92.2425 1.95567 93.0574 1.62973C94.8501 0.977836 96.6428 0.651831 98.1095 0.651831C99.9022 0.651831 101.206 1.14079 102.184 2.11862C102.836 2.77051 103.162 3.42239 103.162 4.23725C103.162 4.40022 103.162 4.72621 102.999 4.88918C102.836 5.86701 102.184 6.35593 101.043 6.5189C100.391 6.5189 100.228 6.68186 100.228 7.0078C100.228 7.17078 100.554 7.17074 100.88 7.17074C101.858 6.84479 102.51 6.51888 102.999 6.19294C103.814 5.54105 104.139 4.72615 104.139 3.91128C104.139 3.74831 104.139 3.42243 104.139 3.25945C103.814 2.11864 103.162 1.30378 102.021 0.814863C100.88 0.325945 99.4133 0 97.4576 0C93.5463 0 90.4498 0.977756 88.3312 2.77045C86.8644 4.07424 86.0495 5.37806 86.0495 6.68184C86.0495 8.14859 86.8644 9.61538 88.4941 10.5932C89.309 11.0821 90.7757 11.734 92.8944 12.7118C95.013 13.6897 96.4798 14.3415 97.2946 14.9934C98.5984 16.1342 99.2503 17.438 99.2503 18.9048C99.2503 19.5567 99.0873 20.2086 98.9244 20.8605C98.1095 23.1421 96.3168 25.0978 93.5463 26.5645C92.2425 27.2164 90.9387 27.7053 89.472 28.0312C88.0052 28.3572 87.0274 28.5202 86.2125 28.5202C85.3976 28.5202 84.7458 28.5202 84.4198 28.5202C80.8344 28.1943 78.2269 27.2164 76.7601 25.2608C75.9452 24.1199 75.4563 22.8161 75.4563 21.3494C75.4563 19.0678 76.1082 17.1121 77.249 15.1564C77.7379 14.3416 78.5528 13.5267 79.5306 12.7118C80.0195 12.3859 80.0196 12.0599 79.8566 12.0599C79.6936 12.0599 79.5306 12.06 79.2047 12.2229C77.575 13.0378 76.2712 14.1786 75.2933 15.9713C74.1525 17.764 73.6636 19.3937 73.6636 20.8605C73.6636 23.1421 74.4785 25.0978 76.2712 26.5645C78.5528 28.5202 81.4863 29.498 85.2347 29.498C89.146 29.498 92.5684 28.6831 95.339 27.0534C97.7836 25.5867 99.5763 23.9569 100.88 21.8383C101.532 20.6975 102.021 19.5567 102.021 18.5788C102.347 17.275 102.184 16.4602 101.695 15.4824ZM155.15 19.3937C154.987 19.3937 154.824 19.3937 154.824 19.7196C153.031 23.468 151.565 25.4237 150.587 25.4237C150.098 25.4237 149.935 25.0978 149.935 24.4459C149.935 22.9791 151.239 19.8826 153.846 15.3194C153.683 15.3194 153.683 15.3194 153.52 15.3194C153.031 15.3194 152.053 15.6454 150.913 16.2973C149.772 16.9492 148.794 17.601 147.979 18.2529C147.164 18.9047 146.186 19.8827 145.209 21.1864C146.675 18.09 148.305 14.9935 150.098 11.897C151.727 8.8005 152.868 7.00776 153.52 6.35587C153.357 6.35587 153.031 6.35587 152.705 6.35587C152.379 6.35587 152.053 6.35587 152.053 6.35587C151.565 6.35587 151.239 6.51883 150.913 6.84477C150.587 7.17072 150.261 7.65963 149.772 8.4745C148.305 11.0821 146.186 15.1564 143.579 20.8605C142.601 22.8161 141.623 24.1199 140.645 24.7718C140.156 25.0977 139.831 25.0977 139.342 25.0977C139.016 25.0977 138.853 24.9348 138.69 24.6088C138.527 24.2829 138.527 24.1199 138.527 23.794C138.527 23.468 138.527 23.305 138.69 22.9791L139.505 19.7196C141.134 18.0899 142.601 16.4602 143.742 14.3416H145.698C145.86 14.3416 145.86 14.3415 145.86 14.1785C145.86 14.0156 145.86 14.0156 145.86 13.8527C145.86 13.6897 145.698 13.6896 145.698 13.6896H144.068C144.557 12.7118 145.046 11.734 145.535 10.7562C146.023 9.77832 146.349 8.80046 146.349 7.9856C146.349 7.17074 146.023 6.68188 145.535 6.5189C145.372 6.5189 145.209 6.5189 145.046 6.5189C144.72 6.5189 144.394 6.68182 143.905 7.17074C143.416 7.49668 142.764 8.31158 142.112 9.45239C141.46 10.5932 140.645 12.0599 139.993 13.6896H138.038C137.875 13.6896 137.875 13.6897 137.875 13.8527C137.875 14.0156 137.875 14.0156 137.875 14.1785C137.875 14.3415 138.038 14.3416 138.038 14.3416H139.668C138.69 16.7862 138.038 18.7418 137.549 20.2085C136.082 23.631 134.289 25.2608 132.497 25.2608C132.008 25.2608 131.682 25.0977 131.356 24.7718C131.03 24.4458 131.03 23.957 131.03 23.3051C131.03 22.3272 131.193 21.5124 131.519 20.8605C132.008 20.8605 132.66 20.6975 133.475 20.3716C134.289 20.0456 134.941 19.7196 135.43 19.3937C137.06 18.2529 137.712 16.9491 137.712 15.6453C137.712 15.3194 137.549 14.9935 137.223 14.6675C136.897 14.3416 136.408 14.3416 135.919 14.3416C135.43 14.3416 134.941 14.5046 134.452 14.6675C133.475 15.1565 132.497 15.8083 131.682 16.7862C130.867 17.764 130.215 18.7418 129.726 19.8826C129.726 20.0456 129.726 20.2085 129.563 20.2085C127.934 23.631 126.304 25.4237 124.348 25.4237C123.859 25.4237 123.533 25.2607 123.207 24.9348C122.881 24.6088 122.881 24.1199 122.881 23.468C122.881 22.4902 123.044 21.6753 123.37 21.0234C123.859 21.0234 124.511 20.8605 125.326 20.5345C126.141 20.2086 126.793 19.8827 127.282 19.5567C128.911 18.4159 129.563 17.112 129.563 15.8083C129.563 15.4823 129.4 15.1564 129.074 14.8305C128.748 14.5045 128.259 14.5045 127.771 14.5045C127.282 14.5045 126.793 14.6675 126.304 14.8305C125.326 15.3194 124.348 15.9713 123.533 16.9491C122.718 17.9269 122.066 18.9048 121.578 20.0456C121.578 20.2086 121.415 20.3715 121.415 20.5345C120.763 22.0013 119.948 23.305 119.133 24.2829C118.481 25.0977 117.829 25.4237 117.34 25.4237C116.851 25.4237 116.688 25.0978 116.688 24.4459C116.688 23.1421 117.992 20.0456 120.6 15.3194C120.437 15.3194 120.437 15.3194 120.274 15.3194C119.785 15.3194 118.807 15.6454 117.666 16.2973C116.525 16.9492 115.548 17.601 114.57 18.4159C113.755 19.2307 112.777 20.2086 111.799 21.3494C111.962 20.8605 112.451 20.0456 113.266 18.7419C114.081 17.4381 114.407 16.6232 114.407 16.2973C114.407 15.9713 114.244 15.6454 113.755 15.4824C113.755 15.3194 113.592 15.3194 113.429 15.4824C113.266 15.4824 113.103 15.4824 113.103 15.4824C112.94 15.4824 112.777 15.4824 112.614 15.6453C112.451 15.8083 112.288 15.8083 112.125 15.9713C111.962 15.9713 111.799 16.1343 111.636 16.2973C111.473 16.4602 111.31 16.6231 111.147 16.6231C110.984 16.7861 110.821 16.9492 110.658 17.1121C110.495 17.2751 110.332 17.438 110.169 17.601C110.007 17.764 109.844 17.9269 109.681 18.0899C109.518 18.2529 109.192 18.5788 108.703 18.9048C108.214 19.2307 107.562 20.0456 106.584 21.3494C108.377 17.764 109.681 15.6453 110.495 15.3194C110.332 15.3194 110.007 15.3194 109.681 15.3194C109.355 15.3194 109.029 15.1564 109.029 15.1564C108.54 15.1564 108.214 15.3194 107.888 15.4824C107.236 15.9713 106.095 18.2529 104.465 21.8383C103.488 23.9569 102.836 25.2608 102.347 26.0756C102.51 25.9126 102.836 25.9126 103.325 25.9126C103.814 25.9126 104.14 25.9126 104.302 25.7497C104.465 25.7497 104.628 25.5867 104.628 25.2608C106.095 22.4902 107.562 20.3715 109.029 18.9048C109.844 18.0899 110.495 17.601 110.821 17.438C110.984 17.275 111.147 17.2751 111.147 17.2751C111.31 17.2751 111.31 17.438 111.31 17.764C111.31 18.0899 111.147 18.5788 110.658 19.3937C109.518 21.8383 108.866 23.631 108.866 24.4459C108.866 24.6089 109.029 24.9348 109.192 25.2608C109.355 25.5867 109.681 25.7497 110.007 25.7497C110.169 24.9348 110.821 23.631 111.799 22.1642C112.777 20.6975 113.755 19.5567 114.733 18.7419C115.711 17.927 116.362 17.438 116.688 17.438C117.014 17.438 117.177 17.601 117.177 17.764C117.177 17.9269 117.014 18.2529 116.851 18.7419C115.874 20.3716 115.222 21.3494 115.059 22.1642C114.896 22.8161 114.733 23.468 114.733 23.9569C114.733 24.4458 114.896 24.7718 115.059 25.0977C115.548 25.7496 116.036 26.0756 116.688 26.0756C117.34 26.0756 117.829 25.9126 118.318 25.5866C118.807 25.2607 119.133 24.9348 119.459 24.6088C119.785 24.2829 120.111 23.794 120.6 22.9791C120.763 22.8161 120.763 22.6531 120.926 22.3272C120.926 22.4901 120.926 22.6532 120.926 22.9791C120.926 23.9569 121.252 24.7718 121.904 25.2608C122.555 25.7497 123.207 26.0756 124.185 26.0756C125.815 26.0756 127.119 25.2607 128.259 23.794C128.585 23.468 128.748 22.9791 129.074 22.4902C129.074 22.6532 129.074 22.8161 129.074 22.9791C129.074 23.9569 129.4 24.7718 130.052 25.2608C130.704 25.7497 131.356 26.0756 132.334 26.0756C133.963 26.0756 135.267 25.2607 136.408 23.794C136.734 23.468 137.06 22.9791 137.223 22.3272C137.223 22.6531 137.223 22.9791 137.223 23.3051C137.223 24.1199 137.386 24.6089 137.875 25.2608C138.364 25.7497 138.853 26.0756 139.505 26.0756C140.482 26.0756 141.297 25.5866 142.112 24.7718C141.786 25.2607 141.623 25.7496 141.297 26.2386C141.46 26.0756 141.786 26.0756 142.438 26.0756C143.09 26.0756 143.416 25.9126 143.579 25.5866C145.046 22.8161 146.512 20.5345 148.142 19.2307C149.12 18.2529 149.935 17.764 150.261 17.764C150.587 17.764 150.75 17.9269 150.75 18.0899C150.75 18.2529 150.587 18.5788 150.424 19.0677C149.446 20.6974 148.794 21.6753 148.631 22.4902C148.468 23.1421 148.305 23.7939 148.305 24.2829C148.305 24.7718 148.468 25.0977 148.631 25.4237C149.12 26.0756 149.609 26.4015 150.424 26.4015C151.565 26.4015 152.542 25.5867 153.52 24.1199C154.009 23.3051 154.335 22.8161 154.661 22.3272C154.987 21.8383 155.15 21.3494 155.476 20.8605C155.802 20.3716 155.802 20.0456 155.802 19.8826C155.313 19.5566 155.313 19.5567 155.15 19.3937ZM144.068 8.80046C144.557 8.14857 144.883 7.82267 145.209 7.82267C145.372 7.82267 145.372 7.98558 145.372 8.4745C145.372 9.45233 144.72 11.2451 143.253 13.8527H141.623C142.764 11.0821 143.579 9.45235 144.068 8.80046ZM141.297 14.5045H142.764C141.786 16.1342 140.645 17.601 139.505 18.7419C140.482 16.4602 140.971 14.9934 141.297 14.5045ZM133.149 17.438C134.452 15.9712 135.267 15.1564 135.919 15.1564C136.245 15.1564 136.408 15.3193 136.408 15.8083C136.408 16.9491 135.756 17.9269 134.615 19.0677C134.126 19.5566 133.475 19.8826 132.823 20.0456C132.171 20.3716 131.519 20.3716 131.193 20.3716C131.845 19.3937 132.497 18.4158 133.149 17.438ZM125.163 17.438C126.467 15.9712 127.282 15.1564 127.934 15.1564C128.259 15.1564 128.422 15.3193 128.422 15.8083C128.422 16.9491 127.771 17.9269 126.63 19.0677C126.141 19.5566 125.489 19.8826 124.837 20.0456C124.185 20.3716 123.533 20.3716 123.207 20.3716C123.859 19.3937 124.511 18.4158 125.163 17.438Z" fill="black"/>
</svg>
