<svg width="12" height="14" viewBox="0 0 12 14" fill="none" xmlns="http://www.w3.org/2000/svg">
<path fill-rule="evenodd" clip-rule="evenodd" d="M10.6667 1.66665H7.88C7.6 0.893313 6.86667 0.333313 6 0.333313C5.13333 0.333313 4.4 0.893313 4.12 1.66665H1.33333C0.6 1.66665 0 2.26665 0 2.99998V12.3333C0 13.0666 0.6 13.6666 1.33333 13.6666H10.6667C11.4 13.6666 12 13.0666 12 12.3333V2.99998C12 2.26665 11.4 1.66665 10.6667 1.66665ZM6 1.66665C6.36667 1.66665 6.66667 1.96665 6.66667 2.33331C6.66667 2.69998 6.36667 2.99998 6 2.99998C5.63333 2.99998 5.33333 2.69998 5.33333 2.33331C5.33333 1.96665 5.63333 1.66665 6 1.66665ZM3.33333 11H6.66667C7.03333 11 7.33333 10.7 7.33333 10.3333C7.33333 9.96665 7.03333 9.66665 6.66667 9.66665H3.33333C2.96667 9.66665 2.66667 9.96665 2.66667 10.3333C2.66667 10.7 2.96667 11 3.33333 11ZM8.66667 8.33331H3.33333C2.96667 8.33331 2.66667 8.03331 2.66667 7.66665C2.66667 7.29998 2.96667 6.99998 3.33333 6.99998H8.66667C9.03333 6.99998 9.33333 7.29998 9.33333 7.66665C9.33333 8.03331 9.03333 8.33331 8.66667 8.33331ZM3.33333 5.66665H8.66667C9.03333 5.66665 9.33333 5.36665 9.33333 4.99998C9.33333 4.63331 9.03333 4.33331 8.66667 4.33331H3.33333C2.96667 4.33331 2.66667 4.63331 2.66667 4.99998C2.66667 5.36665 2.96667 5.66665 3.33333 5.66665Z" fill="#50C4D9"/>
</svg>
