<svg width="47" height="60" viewBox="0 0 47 60" fill="none" xmlns="http://www.w3.org/2000/svg">
<path d="M30 30V15H46.5C46.5 16.05 46.35 16.95 46.2 18C46.05 18.9 45.75 19.95 45.3 20.85C44.85 21.75 44.4 22.65 43.95 23.4C43.35 24.15 42.75 25.05 42.15 25.65C41.4 26.4 40.65 27 39.9 27.45C39.15 28.05 38.25 28.5 37.35 28.8C36.45 29.25 35.55 29.4 34.5 29.7C33.45 30 32.55 30 31.5 30H30Z" fill="#46B2A5"/>
<path d="M30 15V0H31.5C32.55 0 33.45 0.150001 34.5 0.300001C35.55 0.450001 36.45 0.749999 37.35 1.2C38.25 1.65 39.15 2.1 39.9 2.55C40.65 3.15 41.55 3.75 42.15 4.35C42.9 5.1 43.5 5.85 43.95 6.6C44.4 7.35 45 8.25 45.3 9.15C45.6 10.05 45.9 10.95 46.2 12C46.35 12.9 46.5 13.95 46.5 15H30Z" fill="#88E2D5"/>
<path d="M15 15C15 13.95 15.15 13.05 15.3 12C15.45 11.1 15.75 10.05 16.2 9.15C16.65 8.25 17.1 7.35 17.55 6.6C18 5.85 18.75 4.95 19.35 4.35C20.1 3.6 20.85 3 21.6 2.55C22.35 1.95 23.25 1.5 24.15 1.2C25.05 0.749999 25.95 0.600001 27 0.300001C28.05 1.13994e-06 28.95 0 30 0V15H15Z" fill="#46B2A5"/>
<path d="M30 15H15V30H30V15Z" fill="#1D80B7"/>
<path d="M0 30C0 28.95 0.150001 28.05 0.300001 27C0.450001 26.1 0.749999 25.05 1.2 24.15C1.65 23.25 2.1 22.35 2.55 21.6C3 20.85 3.75 19.95 4.35 19.35C4.95 18.75 5.85 18 6.6 17.55C7.35 17.1 8.25 16.5 9.15 16.2C10.05 15.75 10.95 15.6 12 15.3C13.05 15 13.95 15 15 15V30H0Z" fill="#3994C6"/>
<path d="M0 30H15V45C13.95 45 13.05 44.85 12 44.7C10.95 44.55 10.05 44.25 9.15 43.8C8.25 43.35 7.35 42.9 6.6 42.45C5.85 42 4.95 41.25 4.35 40.65C3.75 40.05 3 39.15 2.55 38.4C1.95 37.65 1.5 36.75 1.2 35.85C0.899999 34.95 0.600001 34.05 0.300001 33C0.150001 31.95 0 31.05 0 30Z" fill="#197FA3"/>
<path d="M30 30H15V45H30V30Z" fill="#1072B2"/>
<path d="M30 45V30H31.5C32.55 30 33.45 30.15 34.5 30.3C35.55 30.45 36.45 30.75 37.35 31.2C38.25 31.65 39.15 32.1 39.9 32.55C40.65 33.15 41.55 33.75 42.15 34.35C42.9 35.1 43.5 35.85 43.95 36.6C44.4 37.35 45 38.25 45.3 39.15C45.6 40.05 45.9 40.95 46.2 42C46.35 42.9 46.5 43.95 46.5 45H30Z" fill="#46B2A5"/>
<path d="M46.5 45H30V60H46.5V45Z" fill="#88E2D5"/>
<path d="M15 45H30V60C28.95 60 28.05 59.85 27 59.7C25.95 59.55 25.05 59.25 24.15 58.8C23.25 58.35 22.35 57.9 21.6 57.45C20.85 56.85 19.95 56.25 19.35 55.65C18.6 54.9 18 54.15 17.55 53.4C16.95 52.65 16.5 51.75 16.2 50.85C15.9 49.95 15.6 49.05 15.3 48C15.15 46.95 15 46.05 15 45Z" fill="#46B2A5"/>
</svg>
