<svg xmlns="http://www.w3.org/2000/svg" xmlns:xlink="http://www.w3.org/1999/xlink" width="82" height="82" viewBox="0 0 82 82">
  <defs>
    <style>
      .cls-1 {
        fill: #3aa295;
      }

      .cls-2 {
        fill: #fff;
      }

      .cls-3 {
        filter: url(#Rectangle_4275);
      }
    </style>
    <filter id="Rectangle_4275" x="0" y="0" width="82" height="82" filterUnits="userSpaceOnUse">
      <feOffset dy="3" input="SourceAlpha"/>
      <feGaussianBlur stdDeviation="3" result="blur"/>
      <feFlood flood-opacity="0.161"/>
      <feComposite operator="in" in2="blur"/>
      <feComposite in="SourceGraphic"/>
    </filter>
  </defs>
  <g id="Group_22047" data-name="Group 22047" transform="translate(-1123 -571)">
    <g class="cls-3" transform="matrix(1, 0, 0, 1, 1123, 571)">
      <rect id="Rectangle_4275-2" data-name="Rectangle 4275" class="cls-1" width="64" height="64" rx="32" transform="translate(9 6)"/>
    </g>
    <g id="Group_21993" data-name="Group 21993" transform="translate(1148 589)">
      <g id="Group_21992" data-name="Group 21992">
        <circle id="Ellipse_379" data-name="Ellipse 379" class="cls-2" cx="8.459" cy="8.459" r="8.459" transform="translate(5.052)"/>
        <path id="Path_2895" data-name="Path 2895" class="cls-2" d="M71.725,590.523a11.715,11.715,0,0,1-12.5,0,13.634,13.634,0,0,0-7.263,10.3,2.273,2.273,0,0,0,.5.9,16.005,16.005,0,0,0,24.506,1.563,9.433,9.433,0,0,0,2.016-2.461A13.638,13.638,0,0,0,71.725,590.523Z" transform="translate(-51.964 -572.079)"/>
      </g>
      <path id="Path_68757" data-name="Path 68757" class="cls-1" d="M11,0A11,11,0,1,1,0,11,11,11,0,0,1,11,0Z" transform="translate(14.515 20.02)"/>
      <g id="noun_Add_User_81101" data-name="noun_Add User_81101" transform="translate(16.878 22.383)">
        <path id="Path_12317" data-name="Path 12317" class="cls-2" d="M74.636,66a8.636,8.636,0,1,0,8.636,8.636A8.645,8.645,0,0,0,74.636,66Zm4.045,9.678H75.872v3H73.411v-3h-2.82V73.217h2.819V70.592h2.461v2.626h2.81Z" transform="translate(-66 -66)"/>
      </g>
    </g>
  </g>
</svg>
