<svg width="24" height="24" viewBox="0 0 24 24" fill="none" xmlns="http://www.w3.org/2000/svg">
<path fill-rule="evenodd" clip-rule="evenodd" d="M11.9999 3C10.8999 3 9.99988 3.9 9.99988 5C9.99988 6.1 10.8999 7 11.9999 7C13.0999 7 13.9999 6.1 13.9999 5C13.9999 3.9 13.0999 3 11.9999 3ZM11.9999 17C10.8999 17 9.99988 17.9 9.99988 19C9.99988 20.1 10.8999 21 11.9999 21C13.0999 21 13.9999 20.1 13.9999 19C13.9999 17.9 13.0999 17 11.9999 17ZM9.99988 12C9.99988 10.9 10.8999 10 11.9999 10C13.0999 10 13.9999 10.9 13.9999 12C13.9999 13.1 13.0999 14 11.9999 14C10.8999 14 9.99988 13.1 9.99988 12Z" fill="#939497"/>
</svg>
