<svg width="16" height="16" viewBox="0 0 16 16" fill="none" xmlns="http://www.w3.org/2000/svg">
<path d="M12.1303 12.3697L14.6757 15M7.54847 1C7.97271 1 8.39695 0.999999 8.82119 1.08485C9.24544 1.1697 9.66967 1.25455 10.0091 1.42424C10.4333 1.59394 10.7727 1.76364 11.1121 2.01818C11.4515 2.27273 11.7909 2.52727 12.1303 2.86667C12.4697 3.20606 12.7242 3.46061 12.9788 3.88485C13.2333 4.22424 13.403 4.64849 13.5727 4.98788C13.7424 5.32727 13.8273 5.75151 13.9121 6.17576C13.997 6.6 13.9969 7.02424 13.9969 7.44848C13.9969 7.87273 13.997 8.29697 13.9121 8.72121C13.8273 9.14545 13.7424 9.5697 13.5727 9.90909C13.403 10.2485 13.2333 10.6727 12.9788 11.0121C12.7242 11.3515 12.4697 11.6909 12.1303 12.0303C11.7909 12.3697 11.5363 12.6242 11.1121 12.8788C10.7727 13.1333 10.3485 13.303 10.0091 13.4727C9.58482 13.6424 9.24544 13.7273 8.82119 13.8121C8.39695 13.897 7.97271 13.897 7.54847 13.897C7.12422 13.897 6.69998 13.897 6.27574 13.8121C5.8515 13.7273 5.42723 13.6424 5.08784 13.4727C4.6636 13.303 4.32421 13.1333 3.98482 12.8788C3.64543 12.6242 3.30602 12.3697 2.96663 12.0303C2.62723 11.6909 2.37269 11.4364 2.11814 11.0121C1.8636 10.6727 1.69392 10.2485 1.52422 9.90909C1.35452 9.5697 1.26968 9.14545 1.18483 8.72121C1.09998 8.29697 1.09998 7.87273 1.09998 7.44848C1.09998 7.02424 1.09998 6.6 1.18483 6.17576C1.26968 5.75151 1.35452 5.32727 1.52422 4.98788C1.69392 4.64849 1.8636 4.22424 2.11814 3.88485C2.37269 3.54546 2.62723 3.20606 2.96663 2.86667C3.30602 2.52727 3.56058 2.27273 3.98482 2.01818C4.32421 1.76364 4.74845 1.59394 5.08784 1.42424C5.51208 1.25455 5.8515 1.1697 6.27574 1.08485C6.69998 0.999999 7.12422 1 7.54847 1Z" stroke="#747474" stroke-width="1.5" stroke-miterlimit="10" stroke-linecap="round" stroke-linejoin="round"/>
</svg>
