<svg xmlns="http://www.w3.org/2000/svg" id="floppy-disk" width="52.867" height="52.867" viewBox="0 0 52.867 52.867">
    <defs>
        <style>
            .cls-3{fill:#f9f6f9}.cls-5{fill:#407093}
        </style>
    </defs>
    <path id="Path_68976" fill="#9dc6fb" d="M52.867 19.964v23.324a9.579 9.579 0 0 1-9.579 9.579H9.579A9.579 9.579 0 0 1 0 43.288V9.579A9.579 9.579 0 0 1 9.579 0l11.338 2.548L32.9 0a4.621 4.621 0 0 1 3.27 1.354L51.514 16.7a4.622 4.622 0 0 1 1.353 3.264z"/>
    <path id="Path_68977" fill="#80b4fb" d="M14.46 52.867H9.579A9.579 9.579 0 0 1 0 43.288V9.579A9.579 9.579 0 0 1 9.579 0L11.4.5a9.583 9.583 0 0 0-6.521 9.08v33.708a9.579 9.579 0 0 0 9.581 9.579z"/>
    <path id="Path_68978" d="M35.043 17.114H19.807a4.044 4.044 0 0 1-4.044-4.044V0h23.324v13.07a4.044 4.044 0 0 1-4.044 4.044z" class="cls-3" transform="translate(-6.184)"/>
    <path id="Path_68979" fill="#2b4d66" d="M41.13 16.24a2.865 2.865 0 0 1-2.865-2.865V8.281a2.865 2.865 0 1 1 5.731 0v5.094a2.865 2.865 0 0 1-2.866 2.865z" transform="translate(-15.012 -2.125)"/>
    <path id="Path_68980" d="M44.137 39.295H21.1a5.335 5.335 0 0 0-5.335 5.335v10.129a5.335 5.335 0 0 0 5.335 5.335h23.037a5.335 5.335 0 0 0 5.335-5.335V44.63a5.335 5.335 0 0 0-5.335-5.335z" class="cls-3" transform="translate(-6.184 -15.417)"/>
    <g id="Group_22699" transform="translate(15.024 31.066)">
        <path id="Path_68981" d="M46.745 52.719H25.522a.8.8 0 0 1 0-1.6h21.223a.8.8 0 0 1 0 1.6z" class="cls-5" transform="translate(-24.724 -51.123)"/>
        <path id="Path_68982" d="M46.745 60.665H25.522a.8.8 0 1 1 0-1.6h21.223a.8.8 0 1 1 0 1.6z" class="cls-5" transform="translate(-24.724 -54.241)"/>
    </g>
</svg>
