<svg xmlns="http://www.w3.org/2000/svg" width="268.709" height="187.004" viewBox="0 0 268.709 187.004">
  <defs>
    <style>
      .cls-1 {
        fill: #46b2a5;
        opacity: 0.141;
      }
    </style>
  </defs>
  <path id="Intersection_2" data-name="Intersection 2" class="cls-1" d="M-765.36-21164.7A232.368,232.368,0,0,1-809-21178.189a233.445,233.445,0,0,1-39.5-21.348,233.7,233.7,0,0,1-34.4-28.268,233.611,233.611,0,0,1-28.392-34.264,231.254,231.254,0,0,1-21.435-39.322,229.354,229.354,0,0,1-13.55-43.457q-.221-1.075-.432-2.154h37.877a192.95,192.95,0,0,0,10.385,31.9,194.756,194.756,0,0,0,18.055,33.123,196.5,196.5,0,0,0,23.915,28.859,197.208,197.208,0,0,0,28.984,23.813,196.233,196.233,0,0,0,33.265,17.979,195.446,195.446,0,0,0,36.76,11.363A198.293,198.293,0,0,0-718-21196a198.28,198.28,0,0,0,39.468-3.961l.526-.107v36.566a235.737,235.737,0,0,1-40.5,3.5A235.359,235.359,0,0,1-765.36-21164.7Z" transform="translate(946.71 21347.002)"/>
</svg>
