<svg xmlns="http://www.w3.org/2000/svg" width="39.783" height="26.854" viewBox="0 0 39.783 26.854">
  <defs>
    <style>
      .cls-1 {
        fill: #0c6aaa;
      }
    </style>
  </defs>
  <g id="noun_Mail_681595" transform="translate(-10 -23)">
    <g id="Group_20955" data-name="Group 20955" transform="translate(10 23)">
      <path id="Path_11468" data-name="Path 11468" class="cls-1" d="M13.978,975.362a3.955,3.955,0,0,0-2.315.746l.015.016,17.405,16.348a1.34,1.34,0,0,0,1.616,0L48.1,976.124l.015-.016a3.955,3.955,0,0,0-2.315-.746H13.978Zm-3.59,2.269A3.971,3.971,0,0,0,10,979.341v18.9a3.97,3.97,0,0,0,3.978,3.978H45.8a3.97,3.97,0,0,0,3.978-3.978v-18.9a3.971,3.971,0,0,0-.388-1.709L32.067,993.917a3.19,3.19,0,0,1-4.351,0Z" transform="translate(-10 -975.362)"/>
    </g>
  </g>
</svg>
