<svg width="17" height="10" viewBox="0 0 17 10" fill="none" xmlns="http://www.w3.org/2000/svg">
<path d="M1.43519 0H10.2056C10.9167 0 11.5093 0.595238 11.6278 1.42857V8.57143C11.6278 9.40476 11.0352 10 10.2056 10H1.43519C0.605563 10 0.0129702 9.40476 0.0129702 8.57143V1.42857C-0.105548 0.714286 0.605563 0 1.43519 0C1.31667 0 1.31667 0 1.43519 0Z" fill="#0C6AAA"/>
<path d="M15.6572 1.07147C15.5386 1.07147 15.4201 1.07147 15.4201 1.19052L12.5757 3.21433V6.66671L15.4201 8.80957C15.5386 8.92862 15.7757 8.92862 16.0127 8.80957C16.1312 8.57147 16.2498 8.33338 16.2498 8.09528V1.78576C16.2498 1.66671 16.1312 1.42862 16.0127 1.30957C15.8942 1.19052 15.7757 1.07147 15.6572 1.07147Z" fill="#0C6AAA"/>
</svg>
