<svg width="17" height="10" viewBox="0 0 17 10" fill="none" xmlns="http://www.w3.org/2000/svg">
<path d="M1.43507 0H10.2054C10.9165 0 11.5091 0.595238 11.6277 1.42857V8.57143C11.6277 9.40476 11.0351 10 10.2054 10H1.43507C0.605441 10 0.0128482 9.40476 0.0128482 8.57143V1.42857C-0.10567 0.714286 0.605441 0 1.43507 0C1.31655 0 1.31655 0 1.43507 0Z" fill="#747474"/>
<path d="M15.657 1.07147C15.5385 1.07147 15.42 1.07147 15.42 1.19052L12.5756 3.21433V6.66671L15.42 8.80957C15.5385 8.92862 15.7756 8.92862 16.0126 8.80957C16.1311 8.57147 16.2496 8.33338 16.2496 8.09528V1.78576C16.2496 1.66671 16.1311 1.42862 16.0126 1.30957C15.8941 1.19052 15.7756 1.07147 15.657 1.07147Z" fill="#747474"/>
</svg>
