<svg width="337" height="640" viewBox="0 0 337 640" fill="none" xmlns="http://www.w3.org/2000/svg">
<g clip-path="url(#clip0)">
<path fill-rule="evenodd" clip-rule="evenodd" d="M2.72705 58.1847C2.72705 28.0583 27.1396 3.63647 57.2681 3.63647H281.795C311.917 3.63647 336.336 28.0592 336.336 58.1847V585.452C336.336 615.578 311.924 640 281.795 640H57.2681C27.146 640 2.72705 615.577 2.72705 585.452V58.1847ZM169.986 622.727C186.553 622.727 199.984 609.296 199.984 592.727C199.984 576.159 186.553 562.727 169.986 562.727C153.419 562.727 139.989 576.159 139.989 592.727C139.989 609.296 153.419 622.727 169.986 622.727ZM169.986 45.4547C175.007 45.4547 179.076 41.3847 179.076 36.3637C179.076 31.3428 175.007 27.2728 169.986 27.2728C164.966 27.2728 160.896 31.3428 160.896 36.3637C160.896 41.3847 164.966 45.4547 169.986 45.4547ZM139.08 66.3638C139.08 63.351 141.524 60.9092 144.538 60.9092H194.525C195.972 60.9097 197.359 61.4844 198.383 62.5071C199.406 63.5297 199.982 64.9168 199.984 66.3638C199.984 69.3765 197.539 71.8183 194.525 71.8183H144.538C143.091 71.8178 141.704 71.2431 140.681 70.2204C139.657 69.1978 139.081 67.8107 139.08 66.3638Z" fill="#F2F3F4"/>
<path fill-rule="evenodd" clip-rule="evenodd" d="M17.2712 95.4546H321.792V546.364H17.2712V95.4546Z" fill="#D6D6DC"/>
<path d="M274.523 0H233.617C231.107 0 229.072 0.814028 229.072 1.81818C229.072 2.82234 231.107 3.63636 233.617 3.63636H274.523C277.033 3.63636 279.068 2.82234 279.068 1.81818C279.068 0.814028 277.033 0 274.523 0Z" fill="#ECEFF1"/>
<path fill-rule="evenodd" clip-rule="evenodd" d="M0 95.4546H2.72705V127.273H0V95.4546ZM0 141.818H2.72705V172.727H0V141.818ZM0 187.273H2.72705V219.091H0V187.273Z" fill="#ECEFF1"/>
</g>
<defs>
<clipPath id="clip0">
<rect width="336.336" height="640" fill="white"/>
</clipPath>
</defs>
</svg>
