<svg width="14" height="14" viewBox="0 0 14 14" fill="none" xmlns="http://www.w3.org/2000/svg">
<circle cx="7" cy="7" r="6.5" fill="#FD5656" stroke="white"/>
<path d="M6.38184 8.83203V8.51953C6.38184 8.16146 6.44694 7.86361 6.57715 7.62598C6.70736 7.38835 6.93522 7.14258 7.26074 6.88867C7.64811 6.58268 7.89714 6.34505 8.00781 6.17578C8.12174 6.00651 8.17871 5.80469 8.17871 5.57031C8.17871 5.29688 8.08757 5.08691 7.90527 4.94043C7.72298 4.79395 7.46094 4.7207 7.11914 4.7207C6.8099 4.7207 6.52344 4.76465 6.25977 4.85254C5.99609 4.94043 5.73893 5.04622 5.48828 5.16992L5.07812 4.31055C5.73893 3.94271 6.44694 3.75879 7.20215 3.75879C7.84017 3.75879 8.34635 3.91504 8.7207 4.22754C9.09505 4.54004 9.28223 4.97135 9.28223 5.52148C9.28223 5.76562 9.24642 5.98372 9.1748 6.17578C9.10319 6.36458 8.99414 6.54525 8.84766 6.71777C8.70443 6.8903 8.4554 7.11491 8.10059 7.3916C7.79785 7.62923 7.5944 7.82617 7.49023 7.98242C7.38932 8.13867 7.33887 8.34863 7.33887 8.6123V8.83203H6.38184ZM6.18164 10.3896C6.18164 9.89811 6.4209 9.65234 6.89941 9.65234C7.13379 9.65234 7.31283 9.71745 7.43652 9.84766C7.56022 9.97461 7.62207 10.1553 7.62207 10.3896C7.62207 10.6208 7.55859 10.8047 7.43164 10.9414C7.30794 11.0749 7.13053 11.1416 6.89941 11.1416C6.66829 11.1416 6.49089 11.0765 6.36719 10.9463C6.24349 10.8128 6.18164 10.6273 6.18164 10.3896Z" fill="white"/>
</svg>
