<svg xmlns="http://www.w3.org/2000/svg" width="82.558" height="42.496" viewBox="0 0 82.558 42.496">
  <defs>
    <style>
      .cls-1 {
        fill: #fff;
      }

      .cls-2 {
        fill: #1072b2;
      }

      .cls-3 {
        fill: #cdd8fa;
      }
    </style>
  </defs>
  <g id="Group_20967" data-name="Group 20967" transform="translate(-569.442 -235.261)">
    <g id="Group_20962" data-name="Group 20962" transform="translate(572.423 259.095)">
      <g id="Group_20961" data-name="Group 20961" transform="translate(0 0)">
        <rect id="Rectangle_3701" data-name="Rectangle 3701" class="cls-1" width="51" height="16" rx="7" transform="translate(-0.423 -0.384)"/>
      </g>
    </g>
    <g id="Group_20966" data-name="Group 20966" transform="translate(577.524 263.331)">
      <circle id="Ellipse_248" data-name="Ellipse 248" class="cls-2" cx="3.215" cy="3.215" r="3.215" transform="translate(0 0)"/>
      <circle id="Ellipse_249" data-name="Ellipse 249" class="cls-2" cx="3.215" cy="3.215" r="3.215" transform="translate(9.994 0)"/>
      <circle id="Ellipse_250" data-name="Ellipse 250" class="cls-2" cx="3.215" cy="3.215" r="3.215" transform="translate(19.901 0)"/>
      <circle id="Ellipse_251" data-name="Ellipse 251" class="cls-2" cx="3.215" cy="3.215" r="3.215" transform="translate(29.808 0)"/>
    </g>
    <rect id="Rectangle_3702" data-name="Rectangle 3702" class="cls-3" width="24" height="16" rx="7" transform="translate(624 258.712)"/>
    <path id="Path_11474" data-name="Path 11474" class="cls-2" d="M78.975,40.1h-.782V35.841a10.341,10.341,0,0,0-20.683,0V40.1h-.782a6.19,6.19,0,0,0-6.083,5.475H9.8a7.344,7.344,0,0,0-7.3,7.3V60.7A7.344,7.344,0,0,0,9.8,68H78.975a6.1,6.1,0,0,0,6.083-6.083V46.27A6.176,6.176,0,0,0,78.975,40.1ZM9.8,64a3.3,3.3,0,0,1-3.3-3.3V52.874a3.3,3.3,0,0,1,3.3-3.3H50.644v12.34a6.051,6.051,0,0,0,.435,2.173H9.8Zm51.707-28.07a6.344,6.344,0,0,1,12.688,0v4.258H61.507ZM74.456,52.266,68.025,58.7a2.051,2.051,0,0,1-1.39.608,1.729,1.729,0,0,1-1.39-.608l-4-4.084a1.966,1.966,0,0,1,2.781-2.781l2.607,2.607,5.04-5.04a1.941,1.941,0,0,1,2.781,0A2.046,2.046,0,0,1,74.456,52.266Z" transform="translate(566.942 209.761)"/>
  </g>
</svg>
