<svg id="noun_Phone_2904960" xmlns="http://www.w3.org/2000/svg" width="28.853" height="46.03" viewBox="0 0 28.853 46.03">
  <defs>
    <style>
      .cls-1 {
        fill: #0c6aaa;
        fill-rule: evenodd;
      }
    </style>
  </defs>
  <g id="Group_20954" data-name="Group 20954">
    <path id="Path_11467" data-name="Path 11467" class="cls-1" d="M3.872,0H24.981a3.785,3.785,0,0,1,3.872,3.649V42.381a3.785,3.785,0,0,1-3.872,3.649H3.872A3.785,3.785,0,0,1,0,42.381V3.649A3.785,3.785,0,0,1,3.872,0Zm8.993,41.675h3.123a1.19,1.19,0,0,1,1.124,1.177,1.089,1.089,0,0,1-1.124,1.06H12.865a1.089,1.089,0,0,1-1.124-1.06A1.19,1.19,0,0,1,12.865,41.675ZM10.242,3.649c-.375,0-.625-.118-.625-.471,0-.235.25-.471.625-.471h8.368c.375,0,.625.235.625.471,0,.353-.25.471-.625.471Z"/>
  </g>
</svg>
