<svg xmlns="http://www.w3.org/2000/svg" width="663.946" height="480.001" viewBox="0 0 663.946 480.001">
    <defs>
        <style>
            .cls-2{fill:#fff;opacity:.163}
        </style>
    </defs>
    <g id="Group_22582" transform="translate(-60 -155)">
        <g id="Subtraction_2" fill="#1a2c9b" stroke="none">
            <path d="M662.983 656.5H.5v-479h662.482c-24.003 34.217-42.649 71.655-55.426 111.292C594.248 330.079 587.5 373.214 587.5 417s6.748 86.921 20.057 128.208c12.776 39.637 31.422 77.076 55.426 111.292z" transform="translate(60 -22)"/>
            <path fill="#707070" d="M662.023 656c-23.768-34.045-42.248-71.257-54.942-110.639C593.756 504.025 587 460.838 587 417c0-43.838 6.756-87.025 20.08-128.362 12.695-39.381 31.175-76.593 54.942-110.638H1v478h661.023m1.921 1H0V177h663.945c-24.24 34.387-43.053 72.05-55.913 111.945C594.74 330.182 588 373.266 588 417c0 43.734 6.74 86.817 20.033 128.055 12.859 39.893 31.67 77.557 55.913 111.945l-.001-.001V657zm.002 0l-.001-.001V657z" transform="translate(60 -22)"/>
        </g>
        <path id="Subtraction_3" d="M219.5 0a4.5 4.5 0 1 0 4.5 4.5 4.506 4.506 0 0 0-4.5-4.5zM203 0a4.775 4.775 0 0 0-5 4.5 5.027 5.027 0 0 0 10 0 4.776 4.776 0 0 0-5-4.5zm-16.5 0a4.5 4.5 0 1 0 4.5 4.5 4.506 4.506 0 0 0-4.5-4.5zM170 0a4.776 4.776 0 0 0-5 4.5 5.027 5.027 0 0 0 10 0 4.775 4.775 0 0 0-5-4.5zm-16.5 0a4.5 4.5 0 1 0 4.5 4.5 4.505 4.505 0 0 0-4.5-4.5zM137 0a4.776 4.776 0 0 0-5 4.5 5.028 5.028 0 0 0 10 0 4.776 4.776 0 0 0-5-4.5zm-16.5 0a4.5 4.5 0 1 0 4.5 4.5 4.505 4.505 0 0 0-4.5-4.5zM104 0a4.776 4.776 0 0 0-5 4.5 5.028 5.028 0 0 0 10 0 4.776 4.776 0 0 0-5-4.5zM87.5 0A4.5 4.5 0 1 0 92 4.5 4.506 4.506 0 0 0 87.5 0zm-17 0A4.5 4.5 0 1 0 75 4.5 4.506 4.506 0 0 0 70.5 0zm-16 0A4.5 4.5 0 1 0 59 4.5 4.506 4.506 0 0 0 54.5 0zm-17 0A4.5 4.5 0 1 0 42 4.5 4.505 4.505 0 0 0 37.5 0zm-16 0A4.5 4.5 0 1 0 26 4.5 4.506 4.506 0 0 0 21.5 0zm-17 0A4.5 4.5 0 1 0 9 4.5 4.505 4.505 0 0 0 4.5 0zm215 16a4.775 4.775 0 0 0-4.5 5 4.525 4.525 0 1 0 9 0 4.775 4.775 0 0 0-4.5-5zM203 16a5 5 0 1 0 5 5 5 5 0 0 0-5-5zm-16.5 0a4.775 4.775 0 0 0-4.5 5 4.525 4.525 0 1 0 9 0 4.775 4.775 0 0 0-4.5-5zM170 16a5 5 0 1 0 5 5 5.006 5.006 0 0 0-5-5zm-16.5 0a4.775 4.775 0 0 0-4.5 5 4.525 4.525 0 1 0 9 0 4.775 4.775 0 0 0-4.5-5zM137 16a5 5 0 1 0 5 5 5.006 5.006 0 0 0-5-5zm-16.5 0a4.775 4.775 0 0 0-4.5 5 4.525 4.525 0 1 0 9 0 4.775 4.775 0 0 0-4.5-5zM104 16a5 5 0 1 0 5 5 5.006 5.006 0 0 0-5-5zm-16.5 0a4.775 4.775 0 0 0-4.5 5 4.525 4.525 0 1 0 9 0 4.775 4.775 0 0 0-4.5-5zm-17 0a4.775 4.775 0 0 0-4.5 5 4.525 4.525 0 1 0 9 0 4.775 4.775 0 0 0-4.5-5zm-16 0a4.775 4.775 0 0 0-4.5 5 4.525 4.525 0 1 0 9 0 4.775 4.775 0 0 0-4.5-5zm-17 0a4.775 4.775 0 0 0-4.5 5 4.775 4.775 0 0 0 4.5 5 4.776 4.776 0 0 0 4.5-5 4.775 4.775 0 0 0-4.5-5zm-16 0a4.775 4.775 0 0 0-4.5 5 4.775 4.775 0 0 0 4.5 5 4.776 4.776 0 0 0 4.5-5 4.775 4.775 0 0 0-4.5-5zm-17 0A4.775 4.775 0 0 0 0 21a4.775 4.775 0 0 0 4.5 5A4.775 4.775 0 0 0 9 21a4.775 4.775 0 0 0-4.5-5zm215 17a4.492 4.492 0 0 0-4.472 4h8.946a4.493 4.493 0 0 0-4.474-4zM203 33a4.831 4.831 0 0 0-4.968 4h9.938a4.833 4.833 0 0 0-4.97-4zm-16.5 0a4.492 4.492 0 0 0-4.472 4h8.946a4.493 4.493 0 0 0-4.474-4zM170 33a4.833 4.833 0 0 0-4.97 4h9.938A4.831 4.831 0 0 0 170 33zm-16.5 0a4.491 4.491 0 0 0-4.472 4h8.945a4.493 4.493 0 0 0-4.473-4zM137 33a4.833 4.833 0 0 0-4.97 4h9.939A4.833 4.833 0 0 0 137 33zm-16.5 0a4.491 4.491 0 0 0-4.472 4h8.944a4.492 4.492 0 0 0-4.472-4zM104 33a4.833 4.833 0 0 0-4.97 4h9.939A4.833 4.833 0 0 0 104 33zm-16.5 0a4.493 4.493 0 0 0-4.473 4h8.945a4.492 4.492 0 0 0-4.472-4zm-17 0a4.493 4.493 0 0 0-4.473 4h8.946a4.492 4.492 0 0 0-4.473-4zm-16 0a4.492 4.492 0 0 0-4.472 4h8.944a4.491 4.491 0 0 0-4.472-4zm-17 0a4.491 4.491 0 0 0-4.472 4h8.945a4.493 4.493 0 0 0-4.473-4zm-16 0a4.492 4.492 0 0 0-4.472 4h8.946a4.493 4.493 0 0 0-4.474-4zm-17 0a4.491 4.491 0 0 0-4.472 4h8.944A4.492 4.492 0 0 0 4.5 33z" class="cls-2" transform="translate(142 598)"/>
        <path id="Subtraction_4" d="M219.5 37a4.5 4.5 0 1 1 4.5-4.5 4.506 4.506 0 0 1-4.5 4.5zM203 37a4.775 4.775 0 0 1-5-4.5 5.027 5.027 0 0 1 10 0 4.776 4.776 0 0 1-5 4.5zm-16.5 0a4.5 4.5 0 1 1 4.5-4.5 4.506 4.506 0 0 1-4.5 4.5zM170 37a4.776 4.776 0 0 1-5-4.5 5.027 5.027 0 0 1 10 0 4.775 4.775 0 0 1-5 4.5zm-16.5 0a4.5 4.5 0 1 1 4.5-4.5 4.505 4.505 0 0 1-4.5 4.5zM137 37a4.776 4.776 0 0 1-5-4.5 5.028 5.028 0 0 1 10 0 4.776 4.776 0 0 1-5 4.5zm-16.5 0a4.5 4.5 0 1 1 4.5-4.5 4.505 4.505 0 0 1-4.5 4.5zM104 37a4.776 4.776 0 0 1-5-4.5 5.028 5.028 0 0 1 10 0 4.776 4.776 0 0 1-5 4.5zm-16.5 0a4.5 4.5 0 1 1 4.5-4.5 4.506 4.506 0 0 1-4.5 4.5zm-17 0a4.5 4.5 0 1 1 4.5-4.5 4.506 4.506 0 0 1-4.5 4.5zm-16 0a4.5 4.5 0 1 1 4.5-4.5 4.506 4.506 0 0 1-4.5 4.5zm-17 0a4.5 4.5 0 1 1 4.5-4.5 4.505 4.505 0 0 1-4.5 4.5zm-16 0a4.5 4.5 0 1 1 4.5-4.5 4.506 4.506 0 0 1-4.5 4.5zm-17 0A4.5 4.5 0 1 1 9 32.5 4.505 4.505 0 0 1 4.5 37zm215-16a4.775 4.775 0 0 1-4.5-5 4.525 4.525 0 1 1 9 0 4.775 4.775 0 0 1-4.5 5zM203 21a5 5 0 1 1 5-5 5 5 0 0 1-5 5zm-16.5 0a4.775 4.775 0 0 1-4.5-5 4.525 4.525 0 1 1 9 0 4.775 4.775 0 0 1-4.5 5zM170 21a5 5 0 1 1 5-5 5.006 5.006 0 0 1-5 5zm-16.5 0a4.775 4.775 0 0 1-4.5-5 4.525 4.525 0 1 1 9 0 4.775 4.775 0 0 1-4.5 5zM137 21a5 5 0 1 1 5-5 5.006 5.006 0 0 1-5 5zm-16.5 0a4.775 4.775 0 0 1-4.5-5 4.525 4.525 0 1 1 9 0 4.775 4.775 0 0 1-4.5 5zM104 21a5 5 0 1 1 5-5 5.006 5.006 0 0 1-5 5zm-16.5 0a4.775 4.775 0 0 1-4.5-5 4.525 4.525 0 1 1 9 0 4.775 4.775 0 0 1-4.5 5zm-17 0a4.775 4.775 0 0 1-4.5-5 4.525 4.525 0 1 1 9 0 4.775 4.775 0 0 1-4.5 5zm-16 0a4.775 4.775 0 0 1-4.5-5 4.525 4.525 0 1 1 9 0 4.775 4.775 0 0 1-4.5 5zm-17 0a4.775 4.775 0 0 1-4.5-5 4.775 4.775 0 0 1 4.5-5 4.776 4.776 0 0 1 4.5 5 4.775 4.775 0 0 1-4.5 5zm-16 0a4.775 4.775 0 0 1-4.5-5 4.775 4.775 0 0 1 4.5-5 4.776 4.776 0 0 1 4.5 5 4.775 4.775 0 0 1-4.5 5zm-17 0A4.775 4.775 0 0 1 0 16a4.775 4.775 0 0 1 4.5-5A4.775 4.775 0 0 1 9 16a4.775 4.775 0 0 1-4.5 5zm215-17a4.492 4.492 0 0 1-4.472-4h8.946a4.493 4.493 0 0 1-4.474 4zM203 4a4.831 4.831 0 0 1-4.968-4h9.938A4.833 4.833 0 0 1 203 4zm-16.5 0a4.492 4.492 0 0 1-4.472-4h8.946a4.493 4.493 0 0 1-4.474 4zM170 4a4.833 4.833 0 0 1-4.97-4h9.938A4.831 4.831 0 0 1 170 4zm-16.5 0a4.491 4.491 0 0 1-4.472-4h8.945a4.493 4.493 0 0 1-4.473 4zM137 4a4.833 4.833 0 0 1-4.97-4h9.939A4.833 4.833 0 0 1 137 4zm-16.5 0a4.491 4.491 0 0 1-4.472-4h8.944a4.492 4.492 0 0 1-4.472 4zM104 4a4.833 4.833 0 0 1-4.97-4h9.939A4.833 4.833 0 0 1 104 4zM87.5 4a4.493 4.493 0 0 1-4.473-4h8.945A4.492 4.492 0 0 1 87.5 4zm-17 0a4.493 4.493 0 0 1-4.473-4h8.946A4.492 4.492 0 0 1 70.5 4zm-16 0a4.492 4.492 0 0 1-4.472-4h8.944A4.491 4.491 0 0 1 54.5 4zm-17 0a4.491 4.491 0 0 1-4.472-4h8.945A4.493 4.493 0 0 1 37.5 4zm-16 0a4.492 4.492 0 0 1-4.472-4h8.946A4.493 4.493 0 0 1 21.5 4zm-17 0A4.491 4.491 0 0 1 .028 0h8.944A4.492 4.492 0 0 1 4.5 4z" class="cls-2" transform="translate(140 155)"/>
    </g>
</svg>
